<svg xmlns="http://www.w3.org/2000/svg" xmlns:xlink="http://www.w3.org/1999/xlink" version="1.1" x="0px" y="0px" viewBox="0 0 100 125" enable-background="new 0 0 100 100" xml:space="preserve"><path style="fill:#8795a1;" d="M39.932,14.31c1.202,0,2.404,0,3.607,0c0.159,0.053,0.314,0.128,0.477,0.157c3.172,0.569,5.528,2.358,7.42,4.885  c-1.973,1.089-3.908,2.131-5.819,3.218c-2.782,1.582-5.593,3.121-8.307,4.814c-3.024,1.886-4.335,4.689-3.843,8.249  c0.691,4.998,5.425,9.394,11.231,6.777c2.663-1.2,5.263-2.541,7.88-3.842c2.146-1.067,4.247-2.231,6.427-3.222  c0.783-0.356,1.746-0.493,2.612-0.448c1.742,0.091,3.103,1.12,4.259,2.312c1.81,1.866,3.599,3.766,5.235,5.782  c2.933,3.613,5.723,7.343,8.621,10.985c1.284,1.614,1.891,3.383,1.67,5.432c-0.291,2.688-2.596,4.788-5.291,4.784  c-0.726-0.001-1.453-0.117-2.181-0.18c0.316,2.315-0.094,4.396-2.098,5.814c-1.931,1.366-4.051,1.277-6.23,0.396  c0.134,2.369-0.36,4.428-2.459,5.674c-2.039,1.21-4.145,1.053-6.247-0.162c0,0.347,0.01,0.595-0.002,0.843  c-0.161,3.402-2.782,5.69-6.17,5.362c-1.432-0.139-2.671-0.78-3.833-1.596c-0.475-0.334-0.706-0.683-0.665-1.35  c0.212-3.468-1.438-5.993-4.44-6.888c-0.638-0.19-1.314-0.255-2.02-0.387c-0.031-1.807-0.433-3.506-1.721-4.885  c-1.302-1.394-2.966-1.962-4.828-2.064c-0.127-4.324-2.36-6.649-6.594-7.037c-0.019-0.345-0.034-0.619-0.049-0.893  c-0.161-3.009-2.204-5.351-5.158-5.889c-2.574-0.469-4.845,0.31-6.924,1.767c-1.848,1.295-3.158,3.03-3.98,5.17  c-0.256-0.093-0.463-0.168-0.671-0.243c-2.393-0.869-4.785-1.738-7.178-2.607c0-11.17,0-22.34,0-33.511  c0.059-0.934,0.117-1.869,0.182-2.907c0.712,0.236,1.394,0.452,2.068,0.688c3.321,1.165,6.615,2.416,9.971,3.466  c1.35,0.423,2.84,0.59,4.259,0.554c1.959-0.05,3.575-1.19,5.179-2.206c3.3-2.09,6.682-4.031,10.365-5.359  C36.389,15.147,38.181,14.786,39.932,14.31z"/><path style="fill:#8795a1;" d="M97.336,54.884c-1.597,0.481-3.185,0.992-4.792,1.438c-2.962,0.823-5.785,0.515-8.237-1.421  c-1.005-0.794-1.851-1.833-2.627-2.867c-3.457-4.603-6.805-9.295-10.767-13.488c-1.715-1.816-3.554-3.522-5.409-5.197  c-2.196-1.982-4.731-2.271-7.404-1.103c-1.37,0.599-2.678,1.342-4.005,2.036c-3.3,1.726-6.546,3.564-9.907,5.163  c-3.22,1.533-6.5,0.193-7.83-2.964c-0.906-2.151-0.317-4.646,1.506-6.098c0.74-0.589,1.544-1.114,2.371-1.575  c5.832-3.251,11.682-6.47,17.515-9.719c1.245-0.693,2.456-1.45,3.664-2.206c4.008-2.507,8.068-2.253,12.124-0.18  c2.223,1.137,4.335,2.502,6.598,3.547c1.476,0.682,3.106,1.117,4.714,1.404c2.126,0.379,4.243-0.082,6.29-0.676  c2.084-0.604,4.131-1.336,6.195-2.012C97.336,30.941,97.336,42.912,97.336,54.884z"/><path style="fill:#8795a1;" d="M35.424,85.69c-0.64-0.318-1.379-0.522-1.902-0.975c-1.575-1.364-1.605-3.134-0.988-4.953  c0.268-0.791,0.719-1.521,1.104-2.316c-0.292,0.151-0.573,0.359-0.888,0.448c-1,0.281-2.006,0.698-3.021,0.735  c-2.851,0.104-4.65-2.166-3.974-4.992c0.266-1.111,0.83-2.151,1.178-3.019c-0.767,0.273-1.717,0.75-2.721,0.944  c-3.552,0.684-5.892-1.862-4.926-5.348c0.26-0.939,0.768-1.809,1.075-2.511c-0.979,0.285-2.113,0.801-3.288,0.923  c-3.182,0.33-5.162-2.063-4.423-5.186c0.767-3.239,3.764-5.844,7.075-6.15c3.064-0.282,5.08,2.31,4.193,5.485  c-0.261,0.936-0.77,1.802-1.128,2.616c0.76-0.291,1.588-0.709,2.465-0.922c1.665-0.405,3.268-0.251,4.477,1.139  c1.196,1.375,1.172,2.983,0.612,4.596c-0.276,0.794-0.726,1.527-1.121,2.335c0.203-0.107,0.423-0.217,0.637-0.335  c1.138-0.631,2.344-1.004,3.657-0.884c2.674,0.246,4.233,2.303,3.622,4.939c-0.264,1.137-0.833,2.203-1.183,3.097  c0.731-0.265,1.655-0.725,2.632-0.931c3.594-0.757,6.038,1.882,4.984,5.404c-0.895,2.99-2.962,4.848-5.948,5.702  c-0.136,0.039-0.265,0.105-0.397,0.159C36.626,85.69,36.025,85.69,35.424,85.69z"/><text x="0" y="115" fill="#ffffff" font-size="5px" font-weight="bold" font-family="'Helvetica Neue', Helvetica, Arial-Unicode, Arial, Sans-serif">Created by Marco Galtarossa</text><text x="0" y="120" fill="#ffffff" font-size="5px" font-weight="bold" font-family="'Helvetica Neue', Helvetica, Arial-Unicode, Arial, Sans-serif">from the Noun Project</text></svg>