<svg xmlns="http://www.w3.org/2000/svg" xmlns:xlink="http://www.w3.org/1999/xlink" version="1.1" x="0px" y="0px" viewBox="0 0 100 125" enable-background="new 0 0 100 100" xml:space="preserve"><g><path style="fill:#8795a1;" d="M54.113,90.027l-14.815-0.065c-4.52,0-12.576-0.935-15.089-5.022c-10.563,0.694-15.748,1.738-15.748,3.058   c0,1.023,4.164,1.953,10.957,2.644c0.279,0.343,1.515,0.664,3.503,0.949c-0.079,0.087-0.122,0.175-0.122,0.264   c0,1.504,11.457,2.723,25.589,2.723s25.589-1.219,25.589-2.723c0-0.121-0.082-0.241-0.228-0.358   c1.341-0.215,2.261-0.449,2.683-0.695c7.764-0.703,12.608-1.699,12.608-2.803c0-1.495-6.907-2.54-19.915-3.18   C64.45,90.094,58.817,90.027,54.113,90.027z"/><path style="fill:#8795a1;" d="M91.354,60.049c-1.271-3.63-4.537-4.719-7.805-3.992c-1.712,0.381-2.871,0.361-3.591,0.258   c0.014-0.98-0.091-1.74-0.298-2.311c-0.523-3.444-15.038-6.206-32.878-6.206c-18.172,0-32.904,2.864-32.904,6.397   c0,0.125,0.023,0.249,0.06,0.372c-0.382,1.493-0.364,4.119,0.193,8.425l4.81,12.12c2.41,4.593,4.733,7.681,7.011,9.729   C30.536,88.969,34.93,89,39.45,89H54.15c4.704,0,7.693,1.002,12.982-4.41c1.819-1.863,3.912-4.5,6.441-8.194   c0.001-0.002,0.002-0.009,0.003-0.011c1.851-2.621,10.114-1.716,15.418-5.988C90.681,69.039,92.625,63.679,91.354,60.049z    M46.074,58.598c-16.488,0-29.854-1.91-29.854-4.266s13.366-4.265,29.854-4.265s29.854,1.91,29.854,4.265   S62.562,58.598,46.074,58.598z M85.91,69.305c-1.929,1.044-8.712,1.996-9.982,3.267c0,0,2.36-8.712,3.631-10.979   c1.27-2.27,3.991-3.539,6.17-2.994c2.178,0.544,4.062,2.696,3.751,4.673C89.051,65.978,88.828,67.725,85.91,69.305z"/></g><path style="fill:#8795a1;" d="M36.849,41.377c0,0,0.197-5.261-1.71-8.681c-1.822-3.268-4.744-6.929-2.903-10.396c1.917-3.611,4.516-5.445,4.516-5.445  s-1.793,5.444-1.067,7.441s1.033,2.181,2.722,5.444C40.071,32.959,41.387,38.155,36.849,41.377z"/><path style="fill:#8795a1;" d="M46.957,42.108c0,0,0.303-8.052-2.616-13.287c-2.789-5.001-7.261-10.604-4.444-15.912c2.934-5.527,6.912-8.333,6.912-8.333  s-2.745,8.333-1.634,11.389c1.11,3.056,1.581,3.338,4.167,8.333C51.89,29.224,53.903,37.176,46.957,42.108z"/><path style="fill:#8795a1;" d="M58.491,40.152c0,0,0.197-5.261-1.71-8.681c-1.822-3.267-4.744-6.928-2.903-10.396c1.917-3.611,4.516-5.445,4.516-5.445  s-1.793,5.444-1.067,7.441s1.033,2.181,2.722,5.445C61.714,31.734,63.028,36.93,58.491,40.152z"/><text x="0" y="115" fill="#ffffff" font-size="5px" font-weight="bold" font-family="'Helvetica Neue', Helvetica, Arial-Unicode, Arial, Sans-serif">Created by Christina Spritzendorfer</text><text x="0" y="120" fill="#ffffff" font-size="5px" font-weight="bold" font-family="'Helvetica Neue', Helvetica, Arial-Unicode, Arial, Sans-serif">from the Noun Project</text></svg>