<svg xmlns="http://www.w3.org/2000/svg" xmlns:xlink="http://www.w3.org/1999/xlink" version="1.1" x="0px" y="0px" viewBox="0 0 100 125" style="enable-background:new 0 0 100 100; fill:#8795a1;" xml:space="preserve"><g><path d="M11.761,47.095L5.79,51.001L0,47.095C1.508,20.833,23.315,0,50,0c26.686,0,48.492,20.833,50,47.095l-6.367-3.906   l-5.395,3.906c-0.682-9.131-4.57-17.622-11.123-24.164C69.873,15.701,60.242,11.719,50,11.719   c-10.243,0-19.873,3.982-27.116,11.212C16.332,29.473,12.443,37.964,11.761,47.095z M77.115,77.068   C69.873,84.299,60.242,88.281,50,88.281c-10.243,0-19.873-3.982-27.116-11.213c-6.552-6.541-10.441-15.032-11.123-24.163   l-6.265,3.906L0,52.905C1.508,79.167,23.315,100,50,100c26.686,0,48.492-20.833,50-47.095l-6.367-3.906l-5.395,3.906   C87.557,62.036,83.668,70.527,77.115,77.068z M43.98,46.533c3.237-1.752,5.557-6.551,5.557-12.217   c0-7.125-3.681-12.905-8.239-12.905c-4.542,0-8.226,5.78-8.226,12.905c0,5.994,2.608,11.043,6.133,12.489   c0.993,2.545,2.042,7.196,0.1,13.092c-2.994,9.041-3.739,17.771,2.229,20.689c0,0.005,0.011,0.005,0.011,0.005   c5.981-2.923,5.221-11.653,2.237-20.694C41.751,53.775,42.975,48.991,43.98,46.533z M68.186,34.316   c0-4.693-1.602-8.812-3.992-11.061v14.999h-2.249V21.79c-0.638-0.252-1.312-0.379-2.001-0.379c-0.686,0-1.355,0.127-1.997,0.379   v16.464h-2.247V23.255c-2.389,2.25-3.988,6.368-3.988,11.061c0,5.832,2.47,10.768,5.854,12.365   c0.999,2.507,2.131,7.218,0.152,13.215c-3,9.041-3.748,17.771,2.214,20.689c0,0.005,0.013,0.005,0.013,0.005h0.014   c5.968-2.923,5.222-11.653,2.224-20.694c-1.978-5.997-0.851-10.708,0.149-13.215C65.713,45.084,68.186,40.148,68.186,34.316z"/></g><text x="0" y="115" fill="#ffffff" font-size="5px" font-weight="bold" font-family="'Helvetica Neue', Helvetica, Arial-Unicode, Arial, Sans-serif">Created by b farias</text><text x="0" y="120" fill="#ffffff" font-size="5px" font-weight="bold" font-family="'Helvetica Neue', Helvetica, Arial-Unicode, Arial, Sans-serif">from the Noun Project</text></svg>