<svg xmlns="http://www.w3.org/2000/svg" xmlns:xlink="http://www.w3.org/1999/xlink" version="1.1" x="0px" y="0px" viewBox="0 0 100 124.625" style="enable-background:new 0 0 100 99.7;" xml:space="preserve"><g><path style="fill:#8795a1;" d="M94.9,0H78.3c-2.6,0-4.8,2-5.1,4.6l-7.8,5.8c-0.4,0.3-0.5,0.7-0.4,1.1c0.1,0.4,0.5,0.7,1,0.7h7.1v13.2   c0,2.8,2.3,5.1,5.1,5.1h16.6c2.8,0,5.1-2.3,5.1-5.1V5.1C100,2.3,97.7,0,94.9,0z M98,25.4c0,1.7-1.4,3.1-3.1,3.1H78.3   c-1.7,0-3.1-1.4-3.1-3.1V11.2c0-0.6-0.5-1-1-1h-5.1l5.7-4.3c0.3-0.2,0.4-0.5,0.4-0.8c0-1.7,1.4-3.1,3.1-3.1h16.6   C96.6,2,98,3.4,98,5.1V25.4z"/><path style="fill:#8795a1;" d="M86.4,21.5c-0.4,0-0.8,0.3-0.8,0.8S86,23,86.4,23c0.4,0,0.8-0.3,0.8-0.8S86.9,21.5,86.4,21.5z"/><path style="fill:#8795a1;" d="M86.4,18.7c0.3,0,0.5-0.2,0.5-0.5V8c0-0.3-0.2-0.5-0.5-0.5c-0.3,0-0.5,0.2-0.5,0.5v10.2C85.9,18.5,86.2,18.7,86.4,18.7z"/><path style="fill:#8795a1;" d="M98.6,57H71.2V35.6c0-6.2-5-11.2-11.2-11.2h-3.2c3.7-2.3,6.2-6.5,6.2-11.2C63.1,5.9,57.1,0,49.8,0S36.6,5.9,36.6,13.2   c0,4.7,2.5,8.8,6.2,11.2h-3.2c-6.2,0-11.2,5-11.2,11.2v2.1L16.3,25.4c-0.2-0.2-0.4-0.3-0.7-0.3c0,0,0,0,0,0c-0.3,0-0.5,0.1-0.7,0.3   l-5.8,5.8c-0.4,0.4-0.4,1,0,1.4l15.1,15.3c1.9,1.9,4.4,2.9,7.1,2.7c2.1-0.2,3.9-1.1,5.3-2.5V57h-7.1h-6.1H1c-0.6,0-1,0.5-1,1v40.7   c0,0.6,0.5,1,1,1h97.6c0.6,0,1-0.5,1-1V58C99.7,57.4,99.2,57,98.6,57z M42.2,26.4h6.4l0.2,0.1l-6.6,3.6V26.4z M49.8,27.1l3.4,1.8   l-3.4,3.4L46.5,29L49.8,27.1z M50.9,26.5l0.2-0.1h6.4v3.7L50.9,26.5z M38.6,13.2c0-6.2,5-11.2,11.2-11.2C56,2,61,7.1,61,13.2   s-5,11.2-11.2,11.2C43.7,24.4,38.6,19.4,38.6,13.2z M38.6,43.7v-4.1v-2c0-0.6-0.5-1-1-1s-1,0.5-1,1v2v4.1c0,0.7-0.3,1.5-0.8,2.3   c-1.1,1.5-2.7,2.4-4.6,2.6c-2.1,0.2-4.1-0.6-5.5-2.1L11.3,31.9l4.3-4.3l13.2,13.4c0.3,0.3,0.7,0.4,1.1,0.2c0.4-0.2,0.6-0.5,0.6-0.9   v-4.6c0-5,4.1-9.2,9.2-9.2h1.5V31c0,0.2,0.1,0.3,0.2,0.4c0.1,0,0.2,0.1,0.3,0.1c0.1,0,0.2,0,0.2-0.1l3.6-2l3.9,3.9   c0.1,0.1,0.2,0.1,0.4,0.1s0.3,0,0.4-0.1l3.9-3.9l3.6,2c0.1,0,0.2,0.1,0.2,0.1c0.1,0,0.2,0,0.3-0.1c0.2-0.1,0.3-0.3,0.3-0.4v-4.6H60   c5,0,9.2,4.1,9.2,9.2V57h-6.6V37.6c0-0.3-0.2-0.5-0.5-0.5c-0.3,0-0.5,0.2-0.5,0.5V57H38.6V43.7z M2,59h21.4h6.1h40.7h27.5v38.6H2   V59z"/><path style="fill:#8795a1;" d="M56.9,63H42.7c-2.7,0-4.8,2.2-4.8,4.8v20.7c0,2.7,2.2,4.8,4.8,4.8h14.2c2.7,0,4.8-2.2,4.8-4.8V67.8   C61.8,65.2,59.6,63,56.9,63z M60.3,88.5c0,1.8-1.5,3.3-3.3,3.3H42.7c-1.8,0-3.3-1.5-3.3-3.3V67.8c0-1.8,1.5-3.3,3.3-3.3h14.2   c1.8,0,3.3,1.5,3.3,3.3V88.5z"/><path style="fill:#8795a1;" d="M56.5,70.8H43.2c-1.4,0-2.5,1.1-2.5,2.5V88c0,1.4,1.1,2.5,2.5,2.5h13.3c1.4,0,2.5-1.1,2.5-2.5V73.3   C59,71.9,57.9,70.8,56.5,70.8z M58,88c0,0.8-0.7,1.5-1.5,1.5H43.2c-0.8,0-1.5-0.7-1.5-1.5V73.3c0-0.8,0.7-1.5,1.5-1.5h13.3   c0.8,0,1.5,0.7,1.5,1.5V88z"/><path style="fill:#8795a1;" d="M49.8,69.3c1,0,1.8-0.8,1.8-1.8s-0.8-1.8-1.8-1.8s-1.8,0.8-1.8,1.8S48.9,69.3,49.8,69.3z M49.8,66.8c0.4,0,0.7,0.3,0.7,0.7   c0,0.4-0.3,0.7-0.7,0.7c-0.4,0-0.7-0.3-0.7-0.7C49.1,67.1,49.4,66.8,49.8,66.8z"/><path style="fill:#8795a1;" d="M55.9,73.7H43.7c-0.3,0-0.5,0.2-0.5,0.5s0.2,0.5,0.5,0.5h12.2c0.3,0,0.5-0.2,0.5-0.5S56.2,73.7,55.9,73.7z"/><path style="fill:#8795a1;" d="M55.9,75.8H43.7c-0.3,0-0.5,0.2-0.5,0.5c0,0.3,0.2,0.5,0.5,0.5h12.2c0.3,0,0.5-0.2,0.5-0.5C56.4,76,56.2,75.8,55.9,75.8z"/><path style="fill:#8795a1;" d="M55.9,77.8H43.7c-0.3,0-0.5,0.2-0.5,0.5s0.2,0.5,0.5,0.5h12.2c0.3,0,0.5-0.2,0.5-0.5S56.2,77.8,55.9,77.8z"/><path style="fill:#8795a1;" d="M55.9,79.8H43.7c-0.3,0-0.5,0.2-0.5,0.5s0.2,0.5,0.5,0.5h12.2c0.3,0,0.5-0.2,0.5-0.5S56.2,79.8,55.9,79.8z"/><path style="fill:#8795a1;" d="M55.9,81.9H43.7c-0.3,0-0.5,0.2-0.5,0.5c0,0.3,0.2,0.5,0.5,0.5h12.2c0.3,0,0.5-0.2,0.5-0.5C56.4,82.1,56.2,81.9,55.9,81.9z   "/><path style="fill:#8795a1;" d="M55.9,83.9H43.7c-0.3,0-0.5,0.2-0.5,0.5s0.2,0.5,0.5,0.5h12.2c0.3,0,0.5-0.2,0.5-0.5S56.2,83.9,55.9,83.9z"/><path style="fill:#8795a1;" d="M55.9,85.9H43.7c-0.3,0-0.5,0.2-0.5,0.5c0,0.3,0.2,0.5,0.5,0.5h12.2c0.3,0,0.5-0.2,0.5-0.5C56.4,86.2,56.2,85.9,55.9,85.9z   "/></g><text x="0" y="114.7" fill="#ffffff" font-size="5px" font-weight="bold" font-family="'Helvetica Neue', Helvetica, Arial-Unicode, Arial, Sans-serif">Created by Dairy Free Design</text><text x="0" y="119.7" fill="#ffffff" font-size="5px" font-weight="bold" font-family="'Helvetica Neue', Helvetica, Arial-Unicode, Arial, Sans-serif">from the Noun Project</text></svg>