<svg xmlns="http://www.w3.org/2000/svg" xmlns:xlink="http://www.w3.org/1999/xlink" version="1.1" x="0px" y="0px" viewBox="0 0 100 125" enable-background="new 0 0 100 100" xml:space="preserve"><path style="fill:#8795a1;" d="M66.7,43.8v6.9c0,0.6,0.8,1,1.2,0.5l6.6-6.6h9.8c8,0,14.4-6.4,14.4-14.4c0-8-6.4-14.4-14.4-14.4H71.2  c-8,0-14.4,6.4-14.4,14.4C56.8,36.5,61,41.9,66.7,43.8z M72.4,27.1l2.3-2.3l3,3l3-3l2.3,2.3l-3,3l3,3l-2.3,2.3l-3-3l-3,3l-2.3-2.3  l3-3L72.4,27.1z M30.8,85.3H1.3v-9.6c0-2,0.9-3.9,2.4-5.2c6.7-5.5,13.8-9.6,17.6-11.6c0.4,1,4.5,10.5,7,14c0,0,2.5-8.8,6.6-6.4  c0,0-8.3-6.4-11-9.6v-6.3c-1-1.8-1.7-3.6-1.9-5.3c-0.7-0.1-1.7-1.1-2.8-4.8c-1.3-4.7-0.1-5.7,1.1-5.7c-0.1-0.4-0.2-0.8-0.3-1.2h0  c-0.5-2.4-0.6-4.6,0-6.7c0.7-2.8,2.2-5.1,3.9-6.8c1.1-1.1,2.3-2.2,3.6-3c1.1-0.7,2.2-1.4,3.5-1.8l0,0c1-0.3,2.1-0.6,3.2-0.6  c3.5-0.3,6.1,0.6,8,1.7c2.8,1.6,3.9,3.6,3.9,3.6s6.4,0.5,4.3,13.5c-0.1,0.4-0.2,0.8-0.3,1.2c1.2,0,2.5,1,1.1,5.7  c-1,3.7-2,4.7-2.8,4.8c-0.3,1.7-0.9,3.5-1.9,5.3v6.3c-2.7,3.2-11,9.6-11,9.6c4.1-2.3,6.6,6.4,6.6,6.4c2.5-3.5,6.6-13,7-14  c3.7,2,10.9,6.1,17.6,11.6c1.6,1.3,2.4,3.2,2.4,5.2v9.6H39.7H30.8z"/><text x="0" y="115" fill="#ffffff" font-size="5px" font-weight="bold" font-family="'Helvetica Neue', Helvetica, Arial-Unicode, Arial, Sans-serif">Created by Gregor Cresnar</text><text x="0" y="120" fill="#ffffff" font-size="5px" font-weight="bold" font-family="'Helvetica Neue', Helvetica, Arial-Unicode, Arial, Sans-serif">from the Noun Project</text></svg>