<svg xmlns="http://www.w3.org/2000/svg" xmlns:xlink="http://www.w3.org/1999/xlink" version="1.1" x="0px" y="0px" viewBox="0 0 64 80" enable-background="new 0 0 64 64" xml:space="preserve"><g><path fill="#8795a1" d="M18.108,9.975c0,3.164-2.516,5.682-5.679,5.681c-3.154,0-5.715-2.529-5.734-5.661   c-0.019-3.139,2.609-5.764,5.761-5.754C15.585,4.251,18.108,6.81,18.108,9.975z"/><path fill="#8795a1" d="M35.771,18.243c-1.963,0.548-3.917,1.139-5.898,1.618c-0.733,0.176-1.549,0.204-2.297,0.092   c-1.682-0.248-3.175-1.044-4.665-1.831c-0.502-0.266-1.06-0.503-1.615-0.575c-1.221-0.156-2.451-0.253-3.68-0.343   c-0.099-0.038-0.532,0.005-0.555,0.012c-0.005,0-0.012,0-0.017-0.001c-0.003,0.001-0.004,0.005-0.005,0.008   c-0.14,0.038-0.23,0.115-0.295,0.221c-0.062,0.101-0.104,0.228-0.148,0.371c-0.671,2.133-1.353,4.262-2.036,6.391   c-0.042,0.125-0.095,0.245-0.195,0.484c-0.043-0.169-0.149-0.707-0.269-1.336c-0.078-0.415-0.162-0.869-0.235-1.279   c-0.064-0.417-0.224-1.419-0.231-1.509c0-0.001,0-0.001,0-0.001c0.001-0.005,0.003-0.009,0.004-0.013l0.005-0.029   c0.018-0.044,0.038-0.092,0.066-0.13l0.025-0.034c0.184-0.287,0.379-0.583,0.564-0.88c0.038-0.06,0.048-0.162,0.026-0.23   c-0.065-0.182-0.305-0.943-0.37-1.043c-0.026-0.074-0.052-0.148-0.077-0.222c-0.016-0.044-0.029-0.087-0.044-0.131   c-0.023-0.066-0.06-0.07-0.138-0.106c-0.232-0.105-2.412-0.105-2.585,0c-0.073,0.047-0.114,0.04-0.138,0.106   c-0.016,0.044-0.03,0.087-0.045,0.131c-0.057,0.173-0.38,1.083-0.445,1.265c-0.023,0.067-0.012,0.17,0.026,0.23   c0.186,0.297,0.379,0.593,0.564,0.88l0.025,0.034c0.029,0.038,0.047,0.086,0.066,0.13l0.005,0.029   c0.005,0.014,0.01,0.043,0.01,0.062v0.016c0,0-0.174,1.029-0.237,1.445c-0.066,0.372-0.141,0.781-0.213,1.163   c-0.127,0.677-0.245,1.275-0.291,1.453c-0.101-0.239-0.154-0.359-0.195-0.484c-0.682-2.129-1.365-4.258-2.036-6.391   c-0.045-0.143-0.086-0.27-0.149-0.371c-0.049-0.08-0.113-0.145-0.202-0.188c-0.027-0.013-0.058-0.023-0.091-0.032   c-0.001-0.003-0.004-0.006-0.005-0.008c-0.005,0.001-0.012,0.001-0.017,0.001c-0.071-0.018-0.157-0.026-0.258-0.022   c-0.118,0.004-0.235,0.012-0.352,0.025c-1.189,0.113-2.286,0.597-3.165,1.334c-0.196,0.163-0.381,0.34-0.554,0.528   c-0.221,0.239-0.419,0.496-0.597,0.768c-0.09,0.136-0.173,0.278-0.249,0.422c-0.223,0.417-0.396,0.863-0.509,1.33   c-0.1,0.409-0.152,0.833-0.154,1.269c-0.005,1.691-0.01,3.384-0.01,5.076c-0.001,0.64-0.001,1.279-0.001,1.919   c0,1.009,0.173,2.025,0.457,3.027c0.47,1.653,1.243,3.263,2.047,4.725c1.356,2.468,1.517,5.548,1.705,8.304   c0.196,2.875,0.394,6.485,0.596,9.357c0.005,0.079,0.013,0.158,0.022,0.236c0.066,0.592,0.222,1.131,0.455,1.617   c0.074,0.153,0.156,0.3,0.244,0.44c0.794,1.252,2.168,2.01,3.847,2.019c0.378,0.001,0.756,0.005,1.135,0.005   c0.379,0,0.758-0.004,1.135-0.005c1.679-0.009,3.053-0.767,3.846-2.019c0.09-0.14,0.171-0.287,0.245-0.44   c0.219-0.455,0.37-0.96,0.442-1.51c0.016-0.113,0.027-0.227,0.035-0.343c0.201-2.871,2.543-26.166,2.668-30.415   c0.01-0.352,0.075-0.701,0.122-1.115c0.304,0.112,0.519,0.192,0.736,0.269c0.424,0.152,0.849,0.306,1.272,0.462   c1.085,0.398,2.169,0.797,3.274,1.134c0.764,0.235,1.611,0.426,2.39,0.344c3.211-0.337,6.31-1.191,9.324-2.342   c1.008-0.384,1.634-1.139,1.763-2.216C39.928,19.135,38.035,17.611,35.771,18.243z"/><path fill="#8795a1" d="M62.086,30.422c-0.005-0.973-0.532-1.505-1.511-1.505c-1.629-0.002-3.258-0.001-4.887-0.001   c0.011-0.245,0.022-0.478,0.035-0.71c0.187-3.182-0.592-6.043-2.856-8.38c-0.41-0.423-0.587-0.801-0.539-1.414   c0.128-1.641-0.981-3.227-2.464-3.689c-1.742-0.543-3.4,0.035-4.367,1.52c-0.913,1.402-0.774,3.232,0.341,4.483   c1.103,1.238,2.951,1.645,4.412,0.855c0.564-0.305,0.82-0.152,1.16,0.253c1.76,2.096,2.092,4.521,1.779,7.082   c-1.949,0.001-3.897,0.002-5.845,0.002h-4.925H41.95h-4.925c-4.41,0-8.821-0.005-13.231,0c-0.979,0-1.506,0.532-1.511,1.505   c-0.003,0.39-0.053,0.787,0.014,1.167c0.058,0.325,0.224,0.666,0.393,0.934c1.339,2.101,2.669,3.956,3.991,5.876   c0.166,0.239,0.501,0.433,0.765,0.447c0.441,0.022,0.889,0.027,1.336,0.027c0.571,0,1.144-0.009,1.733-0.009h1.94   c0.305,3.054,1.011,16.365,1.322,19.41c0.089,0.871,0.684,1.456,1.569,1.478c0.594,0.014,1.189,0,1.783,0   c1.608,0,3.215,0,4.822,0.001v0c0.078,0,0.156,0,0.234,0c0.078,0,0.156,0,0.234,0v0c1.607-0.001,3.214-0.001,4.822-0.001   c0.594,0,1.189,0.014,1.783,0c0.885-0.022,1.48-0.607,1.569-1.478c0.311-3.046,1.017-16.357,1.322-19.41h1.94   c0.59,0,1.162,0.009,1.733,0.009c0.447,0,0.895-0.005,1.336-0.027c0.264-0.014,0.599-0.208,0.765-0.447   c1.322-1.919,2.652-3.775,3.991-5.876c0.169-0.267,0.335-0.609,0.393-0.934C62.139,31.209,62.089,30.812,62.086,30.422z"/></g><text x="0" y="79" fill="#ffffff" font-size="5px" font-weight="bold" font-family="'Helvetica Neue', Helvetica, Arial-Unicode, Arial, Sans-serif">Created by Delwar Hossain</text><text x="0" y="84" fill="#ffffff" font-size="5px" font-weight="bold" font-family="'Helvetica Neue', Helvetica, Arial-Unicode, Arial, Sans-serif">from the Noun Project</text></svg>