<svg xmlns="http://www.w3.org/2000/svg" xmlns:xlink="http://www.w3.org/1999/xlink" version="1.1" x="0px" y="0px" viewBox="0 0 100 125" enable-background="new 0 0 100 100" xml:space="preserve"><g><path style="fill: #8795a1;" d="M46.04,6.94c-0.885,0.054-2.954,0.179-8.298,20.587c-6.916,13.169-2.46,25.901-1.023,29.313l-2.654,2.414l-1.163-1.163   c-0.867-0.867-2.02-1.345-3.246-1.345c-1.227,0-2.379,0.478-3.247,1.345c-1.79,1.791-1.79,4.704,0,6.494l0.854,0.854L13.6,77.864   l1.682,1.85L29.032,67.21l7.217,7.215l-11.47,13.578l1.91,1.613l11.334-13.417l0.368,0.368c0.384,0.384,0.831,0.678,1.308,0.901   v3.667c-0.514-0.218-1.07-0.35-1.655-0.35c-2.345,0-4.252,1.908-4.252,4.253c0,1.881,1.235,3.462,2.931,4.021   c0.133,2.227,1.968,4.002,4.227,4.002c2.226,0,4.037-1.726,4.217-3.905c1.75-0.526,3.038-2.135,3.038-4.055   c0-2.345-1.908-4.253-4.252-4.253c-0.626,0-1.217,0.145-1.752,0.389v-3.381c1.011-0.124,1.952-0.558,2.684-1.29   c1.79-1.789,1.79-4.701,0-6.493l-1.028-1.027c3.124-4.554,5.072-8.794,5.159-8.984l0.113-0.247V14.37   c0-4.135-0.937-5.816-1.502-6.454C47.12,6.958,46.299,6.93,46.04,6.94z M38.044,83.286c0.764,0,1.424,0.501,1.655,1.219v0.261   c-1.006,0.313-1.848,0.979-2.382,1.864c-0.604-0.277-1.026-0.884-1.026-1.591C36.292,84.072,37.078,83.286,38.044,83.286z    M40.95,90.563c-0.966,0-1.752-0.786-1.752-1.753s0.786-1.753,1.752-1.753s1.752,0.786,1.752,1.753S41.916,90.563,40.95,90.563z    M43.952,83.35c0.966,0,1.752,0.786,1.752,1.753c0,0.727-0.444,1.351-1.075,1.616c-0.524-0.919-1.373-1.615-2.397-1.942   C42.386,83.965,43.098,83.35,43.952,83.35z M43.116,74.8c-0.791,0.789-2.167,0.789-2.957,0L28.176,62.818   c-0.815-0.815-0.815-2.143,0-2.959c0.395-0.395,0.92-0.612,1.479-0.612c0.559,0,1.083,0.218,1.479,0.612l11.982,11.982   C43.931,72.657,43.931,73.984,43.116,74.8z M35.834,61.024l3.93-3.577l-0.414-0.843c-0.068-0.14-6.741-14.075,0.668-28.035   l0.105-0.27c1.898-7.26,4.49-15.505,5.917-18.19c0.255,0.63,0.587,1.903,0.587,4.261v0.681c-1.058,1.273-3.723,5.437-5.585,16.61   l2.466,0.411c0.958-5.75,2.128-9.49,3.119-11.874v38.326c-2.739,0.411-3.945-0.872-4-0.933l-0.945,0.818l-0.96,0.801   c0.079,0.095,1.631,1.9,4.862,1.9c0.037,0,0.081-0.008,0.119-0.008c-0.813,1.552-2.071,3.799-3.648,6.143L35.834,61.024z"/><path style="fill: #8795a1;" d="M83.304,79.714l1.682-1.85L71.322,65.439l0.854-0.854c1.79-1.79,1.79-4.703,0-6.494c-0.867-0.867-2.02-1.345-3.246-1.345   s-2.379,0.478-3.246,1.345l-1.163,1.163l-2.655-2.414c1.437-3.412,5.892-16.145-1.022-29.313C55.498,7.119,53.43,6.994,52.545,6.94   c-0.253-0.011-1.079,0.017-1.585,0.976c-0.565,0.637-1.502,2.319-1.502,6.454v45.445l0.113,0.247   c0.086,0.19,2.036,4.432,5.158,8.984l-1.027,1.027c-1.79,1.791-1.79,4.704,0,6.493c0.732,0.732,1.672,1.166,2.684,1.29v3.381   c-0.536-0.244-1.126-0.389-1.752-0.389c-2.345,0-4.252,1.908-4.252,4.253c0,1.92,1.287,3.528,3.037,4.055   c0.18,2.18,1.991,3.905,4.217,3.905c2.259,0,4.094-1.775,4.227-4.002c1.696-0.56,2.932-2.141,2.932-4.021   c0-2.345-1.908-4.253-4.253-4.253c-0.585,0-1.142,0.132-1.655,0.351v-3.668c0.478-0.224,0.925-0.518,1.309-0.901l0.368-0.368   l11.335,13.417l1.91-1.613L62.336,74.425l7.217-7.216L83.304,79.714z M52.882,61.104c0.038,0,0.081,0.008,0.118,0.008   c3.231,0,4.783-1.806,4.862-1.9l-1.905-1.619c-0.055,0.061-1.257,1.343-3.999,0.932V20.201c0.99,2.384,2.159,6.124,3.117,11.872   l2.467-0.411c-1.861-11.172-4.525-15.336-5.584-16.609V14.37c0-2.358,0.331-3.631,0.587-4.261c1.427,2.685,4.018,10.93,5.917,18.19   l0.104,0.27c7.408,13.96,0.735,27.896,0.668,28.035l-0.415,0.845l3.932,3.575l-6.221,6.222   C54.955,64.905,53.696,62.656,52.882,61.104z M55.469,71.842l11.983-11.982c0.395-0.395,0.92-0.612,1.479-0.612   s1.084,0.218,1.479,0.612c0.815,0.816,0.815,2.144,0,2.959L58.426,74.8c-0.789,0.789-2.168,0.789-2.957,0   C54.653,73.984,54.654,72.657,55.469,71.842z M54.633,83.35c0.854,0,1.565,0.615,1.719,1.427c-1.023,0.327-1.872,1.023-2.396,1.942   c-0.631-0.266-1.074-0.89-1.074-1.616C52.881,84.136,53.667,83.35,54.633,83.35z M57.635,90.563c-0.966,0-1.752-0.786-1.752-1.753   s0.786-1.753,1.752-1.753s1.752,0.786,1.752,1.753S58.601,90.563,57.635,90.563z M60.54,83.286c0.967,0,1.753,0.786,1.753,1.753   c0,0.707-0.423,1.313-1.026,1.591c-0.534-0.886-1.376-1.552-2.382-1.864v-0.26C59.116,83.787,59.776,83.286,60.54,83.286z"/></g><text x="0" y="115" fill="#ffffff" font-size="5px" font-weight="bold" font-family="'Helvetica Neue', Helvetica, Arial-Unicode, Arial, Sans-serif">Created by Creative Mania</text><text x="0" y="120" fill="#ffffff" font-size="5px" font-weight="bold" font-family="'Helvetica Neue', Helvetica, Arial-Unicode, Arial, Sans-serif">from the Noun Project</text></svg>